<?xml version="1.0" encoding="utf-8"?>
<!-- Generator: Adobe Illustrator 25.4.1, SVG Export Plug-In . SVG Version: 6.00 Build 0)  -->
<svg version="1.1" id="visual" xmlns="http://www.w3.org/2000/svg" xmlns:xlink="http://www.w3.org/1999/xlink" x="0px" y="0px"
	 viewBox="0 0 900 129.5" style="enable-background:new 0 0 900 129.5;" xml:space="preserve">
<style type="text/css">
	.st0{fill:#A8A89E;}
	.st1{fill:#98A288;}
	.st2{fill:#7E9D78;}
	.st3{fill:#589971;}
	.st4{fill:#009473;}
</style>
<path class="st0" d="M0,30.1l21.5-3.2C43,23.8,86,17.4,128.8,19.3c42.9,1.8,85.5,11.8,128.4,13.3c42.8,1.5,85.8-5.5,128.6-8.8
	c42.9-3.4,85.5-3,128.4-3.9c42.8-0.8,85.8-2.8,128.6-3.1c42.9-0.4,85.5,1,128.4,5.5c42.8,4.5,85.8,12.1,107.3,16l21.5,3.8v81h-21.5
	c-21.5,0-64.5,0-107.3,0c-42.9,0-85.5,0-128.4,0c-42.8,0-85.8,0-128.6,0c-42.9,0-85.5,0-128.4,0c-42.8,0-85.8,0-128.6,0
	c-42.9,0-85.5,0-128.4,0c-42.8,0-85.8,0-107.3,0H0V30.1z"/>
<path class="st1" d="M0,31.5l21.5,3.7C43,38.8,86,46.2,128.8,47.5c42.9,1.3,85.5-3.3,128.4-5.7c42.8-2.3,85.8-2.3,128.6-2.3
	c42.9,0,85.5,0,128.4-1.3c42.8-1.4,85.8-4,128.6-2.7c42.9,1.3,85.5,6.7,128.4,6c42.8-0.7,85.8-7.3,107.3-10.7l21.5-3.3v103h-21.5
	c-21.5,0-64.5,0-107.3,0c-42.9,0-85.5,0-128.4,0c-42.8,0-85.8,0-128.6,0c-42.9,0-85.5,0-128.4,0c-42.8,0-85.8,0-128.6,0
	c-42.9,0-85.5,0-128.4,0c-42.8,0-85.8,0-107.3,0H0V31.5z"/>
<path class="st2" d="M0,54.5l21.5,1.3c21.5,1.4,64.5,4,107.3,4c42.9,0,85.5-2.6,128.4,0.4C300,63.2,343,71.8,385.8,74
	c42.9,2.2,85.5-2.2,128.4-6.8c42.8-4.7,85.8-9.7,128.6-12c42.9-2.4,85.5-2,128.4-1.5c42.8,0.5,85.8,1.1,107.3,1.5l21.5,0.3v75h-21.5
	c-21.5,0-64.5,0-107.3,0c-42.9,0-85.5,0-128.4,0c-42.8,0-85.8,0-128.6,0c-42.9,0-85.5,0-128.4,0c-42.8,0-85.8,0-128.6,0
	c-42.9,0-85.5,0-128.4,0c-42.8,0-85.8,0-107.3,0H0V54.5z"/>
<path class="st3" d="M0,93.5l21.5,1c21.5,1,64.5,3,107.3,2c42.9-1,85.5-5,128.4-8c42.8-3,85.8-5,128.6-3.8
	c42.9,1.1,85.5,5.5,128.4,6.6c42.8,1.2,85.8-0.8,128.6-4.1c42.9-3.4,85.5-8,128.4-9.9C814,75.5,857,76.5,878.5,77l21.5,0.5v53h-21.5
	c-21.5,0-64.5,0-107.3,0c-42.9,0-85.5,0-128.4,0c-42.8,0-85.8,0-128.6,0c-42.9,0-85.5,0-128.4,0c-42.8,0-85.8,0-128.6,0
	c-42.9,0-85.5,0-128.4,0c-42.8,0-85.8,0-107.3,0H0V93.5z"/>
<path class="st4" d="M0,100.5l21.5,1.7c21.5,1.6,64.5,5,107.3,4.5c42.9-0.5,85.5-4.9,128.4-6.5c42.8-1.7,85.8-0.7,128.6,2
	c42.9,2.6,85.5,7,128.4,8.8c42.8,1.8,85.8,1.2,128.6-1.2c42.9-2.3,85.5-6.3,128.4-6.3c42.8,0,85.8,4,107.3,6l21.5,2v19h-21.5
	c-21.5,0-64.5,0-107.3,0c-42.9,0-85.5,0-128.4,0c-42.8,0-85.8,0-128.6,0c-42.9,0-85.5,0-128.4,0c-42.8,0-85.8,0-128.6,0
	c-42.9,0-85.5,0-128.4,0c-42.8,0-85.8,0-107.3,0H0V100.5z"/>
</svg>
