<?xml version="1.0" encoding="utf-8"?>
<!-- Generator: Adobe Illustrator 25.4.1, SVG Export Plug-In . SVG Version: 6.00 Build 0)  -->
<svg version="1.1" id="visual" xmlns="http://www.w3.org/2000/svg" xmlns:xlink="http://www.w3.org/1999/xlink" x="0px" y="0px"
	 viewBox="0 0 900 259.5" style="enable-background:new 0 0 900 259.5;" xml:space="preserve">
<style type="text/css">
	.st0{fill:#E8DAF0;}
	.st1{fill:#A8A89E;}
	.st2{fill:#98A288;}
	.st3{fill:#7E9D78;}
	.st4{fill:#589971;}
	.st5{fill:#009473;}
</style>
<rect y="0" class="st0" width="900" height="259.5"/>
<path class="st1" d="M0,218l21.5,0.5C43,219,86,220,128.8,224.8c42.9,4.9,85.5,13.5,128.4,8c42.8-5.5,85.8-25.1,128.6-38.5
	c42.9-13.3,85.5-20.3,128.4-16.8C557,181,600,195,642.8,197.3c42.9,2.4,85.5-7,128.4-15.5c42.8-8.5,85.8-16.1,107.3-20L900,158V0
	h-21.5C857,0,814,0,771.2,0c-42.9,0-85.5,0-128.4,0C600,0,557,0,514.2,0c-42.9,0-85.5,0-128.4,0C343,0,300,0,257.2,0
	c-42.9,0-85.5,0-128.4,0C86,0,43,0,21.5,0H0V218z"/>
<path class="st2" d="M0,138l21.5,1.3c21.5,1.4,64.5,4,107.3,12.4c42.9,8.3,85.5,22.3,128.4,28.3c42.8,6,85.8,4,128.6-2.2
	c42.9-6.1,85.5-16.5,128.4-23.3c42.8-6.8,85.8-10.2,128.6-5.7c42.9,4.5,85.5,16.9,128.4,15.5C814,163,857,148,878.5,140.5L900,133V0
	h-21.5C857,0,814,0,771.2,0c-42.9,0-85.5,0-128.4,0C600,0,557,0,514.2,0c-42.9,0-85.5,0-128.4,0C343,0,300,0,257.2,0
	c-42.9,0-85.5,0-128.4,0C86,0,43,0,21.5,0H0V138z"/>
<path class="st3" d="M0,141l21.5-2.3c21.5-2.4,64.5-7,107.3-14.5c42.9-7.5,85.5-17.9,128.4-21.5C300,99,343,102,385.8,109.2
	c42.9,7.1,85.5,18.5,128.4,24.5c42.8,6,85.8,6.6,128.6,1.3c42.9-5.3,85.5-16.7,128.4-21.5c42.8-4.8,85.8-3.2,107.3-2.3L900,112V0
	h-21.5C857,0,814,0,771.2,0c-42.9,0-85.5,0-128.4,0C600,0,557,0,514.2,0c-42.9,0-85.5,0-128.4,0C343,0,300,0,257.2,0
	c-42.9,0-85.5,0-128.4,0C86,0,43,0,21.5,0H0V141z"/>
<path class="st4" d="M0,104l21.5,0.3c21.5,0.4,64.5,1,107.3,0c42.9-1,85.5-3.6,128.4-9C300,90,343,82,385.8,83.2
	c42.9,1.1,85.5,11.5,128.4,12.3c42.8,0.8,85.8-7.8,128.6-7.3c42.9,0.5,85.5,10.1,128.4,16C814,110,857,112,878.5,113l21.5,1V0h-21.5
	C857,0,814,0,771.2,0c-42.9,0-85.5,0-128.4,0C600,0,557,0,514.2,0c-42.9,0-85.5,0-128.4,0C343,0,300,0,257.2,0
	c-42.9,0-85.5,0-128.4,0C86,0,43,0,21.5,0H0V104z"/>
<path class="st5" d="M0,43l21.5,4.5C43,52,86,61,128.8,62.7c42.9,1.6,85.5-4,128.4-8.5c42.8-4.5,85.8-7.9,128.6-12.4
	c42.9-4.5,85.5-10.1,128.4-8.3c42.8,1.8,85.8,11.2,128.6,12c42.9,0.8,85.5-6.8,128.4-9.2C814,34,857,37,878.5,38.5L900,40V0h-21.5
	C857,0,814,0,771.2,0c-42.9,0-85.5,0-128.4,0C600,0,557,0,514.2,0c-42.9,0-85.5,0-128.4,0C343,0,300,0,257.2,0
	c-42.9,0-85.5,0-128.4,0C86,0,43,0,21.5,0H0V43z"/>
</svg>
